{
  "accessors": [
    {
      "bufferView": 1,
      "componentType": 5126,
      "count": 44281,
      "max": [
        70.0,
        0.0,
        110.0
      ],
      "min": [
        -70.0,
        -64.0,
        -110.0
      ],
      "type": "VEC3"
    },
    {
      "bufferView": 1,
      "byteOffset": 531372,
      "componentType": 5126,
      "count": 44281,
      "max": [
        1.0,
        1.0,
        1.0
      ],
      "min": [
        -1.0,
        -1.0,
        -1.0
      ],
      "type": "VEC3"
    },
    {
      "bufferView": 0,
      "componentType": 5125,
      "count": 134187,
      "type": "SCALAR"
    },
    {
      "bufferView": 1,
      "byteOffset": 1062744,
      "componentType": 5126,
      "count": 8260,
      "max": [
        69.0,
        -58.0,
        109.0
      ],
      "min": [
        -69.0,
        -80.0,
        -109.0
      ],
      "type": "VEC3"
    },
    {
      "bufferView": 1,
      "byteOffset": 1161864,
      "componentType": 5126,
      "count": 8260,
      "max": [
        1.0,
        1.0,
        1.0
      ],
      "min": [
        -1.0,
        -1.0,
        -1.0
      ],
      "type": "VEC3"
    },
    {
      "bufferView": 0,
      "byteOffset": 536748,
      "componentType": 5125,
      "count": 23565,
      "type": "SCALAR"
    },
    {
      "bufferView": 1,
      "byteOffset": 1260984,
      "componentType": 5126,
      "count": 5804,
      "max": [
        64.75,
        -49.25,
        22.25
      ],
      "min": [
        -64.75,
        -73.5,
        -106.0
      ],
      "type": "VEC3"
    },
    {
      "bufferView": 1,
      "byteOffset": 1330632,
      "componentType": 5126,
      "count": 5804,
      "max": [
        1.0,
        1.0,
        0.9998062252998352
      ],
      "min": [
        -1.0,
        -1.0,
        -1.0
      ],
      "type": "VEC3"
    },
    {
      "bufferView": 0,
      "byteOffset": 631008,
      "componentType": 5125,
      "count": 24912,
      "type": "SCALAR"
    },
    {
      "bufferView": 1,
      "byteOffset": 1400280,
      "componentType": 5126,
      "count": 768,
      "max": [
        52.5,
        -76.0,
        99.16699981689453
      ],
      "min": [
        -19.16699981689453,
        -79.0,
        -92.5
      ],
      "type": "VEC3"
    },
    {
      "bufferView": 1,
      "byteOffset": 1409496,
      "componentType": 5126,
      "count": 768,
      "max": [
        0.9997588992118835,
        1.0,
        0.9997588992118835
      ],
      "min": [
        -0.9997588992118835,
        -1.0,
        -0.9997588992118835
      ],
      "type": "VEC3"
    },
    {
      "bufferView": 0,
      "byteOffset": 730656,
      "componentType": 5125,
      "count": 2304,
      "type": "SCALAR"
    },
    {
      "bufferView": 1,
      "byteOffset": 1418712,
      "componentType": 5126,
      "count": 68,
      "max": [
        9.5,
        -55.0,
        -83.0
      ],
      "min": [
        -9.5,
        -73.5,
        -104.5
      ],
      "type": "VEC3"
    },
    {
      "bufferView": 1,
      "byteOffset": 1419528,
      "componentType": 5126,
      "count": 68,
      "max": [
        1.0,
        1.0,
        1.0
      ],
      "min": [
        -1.0,
        -1.0,
        -1.0
      ],
      "type": "VEC3"
    },
    {
      "bufferView": 0,
      "byteOffset": 739872,
      "componentType": 5125,
      "count": 102,
      "type": "SCALAR"
    },
    {
      "bufferView": 1,
      "byteOffset": 1420344,
      "componentType": 5126,
      "count": 800,
      "max": [
        68.0,
        -64.5,
        47.845001220703125
      ],
      "min": [
        -68.0,
        -70.5,
        -104.30000305175781
      ],
      "type": "VEC3"
    },
    {
      "bufferView": 1,
      "byteOffset": 1429944,
      "componentType": 5126,
      "count": 800,
      "max": [
        1.0,
        1.0,
        1.0
      ],
      "min": [
        -1.0,
        -1.0,
        -1.0
      ],
      "type": "VEC3"
    },
    {
      "bufferView": 0,
      "byteOffset": 740280,
      "componentType": 5125,
      "count": 1200,
      "type": "SCALAR"
    },
    {
      "bufferView": 1,
      "byteOffset": 1439544,
      "componentType": 5126,
      "count": 2232,
      "max": [
        69.0,
        -60.0,
        55.5
      ],
      "min": [
        -69.0,
        -76.0,
        -55.5
      ],
      "type": "VEC3"
    },
    {
      "bufferView": 1,
      "byteOffset": 1466328,
      "componentType": 5126,
      "count": 2232,
      "max": [
        1.0,
        1.0,
        1.0
      ],
      "min": [
        -1.0,
        -1.0,
        -1.0
      ],
      "type": "VEC3"
    },
    {
      "bufferView": 0,
      "byteOffset": 745080,
      "componentType": 5125,
      "count": 6264,
      "type": "SCALAR"
    },
    {
      "bufferView": 1,
      "byteOffset": 1493112,
      "componentType": 5126,
      "count": 5368,
      "max": [
        69.0,
        0.0,
        90.0
      ],
      "min": [
        -69.0,
        -55.0,
        -96.1729965209961
      ],
      "type": "VEC3"
    },
    {
      "bufferView": 1,
      "byteOffset": 1557528,
      "componentType": 5126,
      "count": 5368,
      "max": [
        1.0,
        1.0,
        1.0
      ],
      "min": [
        -1.0,
        -1.0,
        -1.0
      ],
      "type": "VEC3"
    },
    {
      "bufferView": 0,
      "byteOffset": 770136,
      "componentType": 5125,
      "count": 19563,
      "type": "SCALAR"
    },
    {
      "bufferView": 1,
      "byteOffset": 1621944,
      "componentType": 5126,
      "count": 1544,
      "max": [
        55.530799865722656,
        -6.0,
        28.0
      ],
      "min": [
        -55.530799865722656,
        -48.0,
        -28.0
      ],
      "type": "VEC3"
    },
    {
      "bufferView": 1,
      "byteOffset": 1640472,
      "componentType": 5126,
      "count": 1544,
      "max": [
        0.9997588992118835,
        1.0,
        0.9997588992118835
      ],
      "min": [
        -0.9997588992118835,
        -1.0,
        -0.9997588992118835
      ],
      "type": "VEC3"
    },
    {
      "bufferView": 0,
      "byteOffset": 848388,
      "componentType": 5125,
      "count": 4608,
      "type": "SCALAR"
    },
    {
      "bufferView": 1,
      "byteOffset": 1659000,
      "componentType": 5126,
      "count": 24,
      "max": [
        8.0,
        -48.0,
        -83.0
      ],
      "min": [
        -8.0,
        -52.0,
        -91.0
      ],
      "type": "VEC3"
    },
    {
      "bufferView": 1,
      "byteOffset": 1659288,
      "componentType": 5126,
      "count": 24,
      "max": [
        1.0,
        1.0,
        1.0
      ],
      "min": [
        -1.0,
        -1.0,
        -1.0
      ],
      "type": "VEC3"
    },
    {
      "bufferView": 0,
      "byteOffset": 866820,
      "componentType": 5125,
      "count": 36,
      "type": "SCALAR"
    }
  ],
  "asset": {
    "extras": {
      "author": "gabca25 (https://sketchfab.com/gabca25)",
      "license": "CC-BY-4.0 (http://creativecommons.org/licenses/by/4.0/)",
      "source": "https://sketchfab.com/3d-models/hub-spike-prime-4724ddad975542e8820cd6606433f8d0",
      "title": "hub spike prime"
    },
    "generator": "Sketchfab-15.53.0",
    "version": "2.0"
  },
  "bufferViews": [
    {
      "buffer": 0,
      "byteLength": 866964,
      "name": "floatBufferViews",
      "target": 34963
    },
    {
      "buffer": 0,
      "byteLength": 1659576,
      "byteOffset": 866964,
      "byteStride": 12,
      "name": "floatBufferViews",
      "target": 34962
    }
  ],
  "buffers": [
    {
      "byteLength": 2526540,
      "uri": "scene.bin"
    }
  ],
  "materials": [
    {
      "doubleSided": true,
      "name": "SOLID-YELLOW",
      "pbrMetallicRoughness": {
        "baseColorFactor": [
          0.945098,
          0.8,
          0.211765,
          1.0
        ],
        "metallicFactor": 0.0,
        "roughnessFactor": 0.6636414338985142
      }
    },
    {
      "doubleSided": true,
      "name": "SOLID-WHITE",
      "pbrMetallicRoughness": {
        "baseColorFactor": [
          0.996078,
          0.996078,
          0.996078,
          1.0
        ],
        "metallicFactor": 0.0,
        "roughnessFactor": 0.6636414338985142
      }
    },
    {
      "doubleSided": true,
      "name": "METAL-CONTACT_ALLOY",
      "pbrMetallicRoughness": {
        "baseColorFactor": [
          0.815686,
          0.815686,
          0.815686,
          1.0
        ],
        "metallicFactor": 0.0,
        "roughnessFactor": 0.6636414338985142
      }
    },
    {
      "alphaMode": "BLEND",
      "doubleSided": true,
      "name": "TRANS-CLEAR",
      "pbrMetallicRoughness": {
        "baseColorFactor": [
          0.984314,
          0.984314,
          0.984314,
          0.501961
        ],
        "metallicFactor": 0.0,
        "roughnessFactor": 0.6636414338985142
      }
    },
    {
      "doubleSided": true,
      "name": "SOLID-BLACK",
      "pbrMetallicRoughness": {
        "baseColorFactor": [
          0.0156863,
          0.0705882,
          0.109804,
          1.0
        ],
        "metallicFactor": 0.0,
        "roughnessFactor": 0.6636414338985142
      }
    },
    {
      "doubleSided": true,
      "name": "CHROME-GOLD",
      "pbrMetallicRoughness": {
        "baseColorFactor": [
          0.729412,
          0.643137,
          0.235294,
          1.0
        ],
        "metallicFactor": 0.0,
        "roughnessFactor": 0.6636414338985142
      }
    },
    {
      "doubleSided": true,
      "name": "SOLID-LIGHT_BLUISH_GRAY",
      "pbrMetallicRoughness": {
        "baseColorFactor": [
          0.623529,
          0.643137,
          0.658824,
          1.0
        ],
        "metallicFactor": 0.0,
        "roughnessFactor": 0.6636414338985142
      }
    }
  ],
  "meshes": [
    {
      "name": "Base",
      "primitives": [
        {
          "attributes": {
            "NORMAL": 1,
            "POSITION": 0
          },
          "indices": 2,
          "material": 0,
          "mode": 4
        }
      ]
    },
    {
      "name": "sym_1",
      "primitives": [
        {
          "attributes": {
            "NORMAL": 4,
            "POSITION": 3
          },
          "indices": 5,
          "material": 1,
          "mode": 4
        }
      ]
    },
    {
      "name": "sym_-11",
      "primitives": [
        {
          "attributes": {
            "NORMAL": 7,
            "POSITION": 6
          },
          "indices": 8,
          "material": 2,
          "mode": 4
        }
      ]
    },
    {
      "name": "sym_12",
      "primitives": [
        {
          "attributes": {
            "NORMAL": 10,
            "POSITION": 9
          },
          "indices": 11,
          "material": 3,
          "mode": 4
        }
      ]
    },
    {
      "name": "sym_11",
      "primitives": [
        {
          "attributes": {
            "NORMAL": 13,
            "POSITION": 12
          },
          "indices": 14,
          "material": 4,
          "mode": 4
        }
      ]
    },
    {
      "name": "sym_21",
      "primitives": [
        {
          "attributes": {
            "NORMAL": 16,
            "POSITION": 15
          },
          "indices": 17,
          "material": 5,
          "mode": 4
        }
      ]
    },
    {
      "name": "sym_86",
      "primitives": [
        {
          "attributes": {
            "NORMAL": 19,
            "POSITION": 18
          },
          "indices": 20,
          "material": 6,
          "mode": 4
        }
      ]
    },
    {
      "name": "Base",
      "primitives": [
        {
          "attributes": {
            "NORMAL": 22,
            "POSITION": 21
          },
          "indices": 23,
          "material": 0,
          "mode": 4
        }
      ]
    },
    {
      "name": "sym_-11",
      "primitives": [
        {
          "attributes": {
            "NORMAL": 25,
            "POSITION": 24
          },
          "indices": 26,
          "material": 2,
          "mode": 4
        }
      ]
    },
    {
      "name": "sym_11",
      "primitives": [
        {
          "attributes": {
            "NORMAL": 28,
            "POSITION": 27
          },
          "indices": 29,
          "material": 4,
          "mode": 4
        }
      ]
    }
  ],
  "nodes": [
    {
      "children": [
        1
      ],
      "matrix": [
        1.0,
        0.0,
        0.0,
        0.0,
        0.0,
        2.220446049250313e-16,
        -1.0,
        0.0,
        0.0,
        1.0,
        2.220446049250313e-16,
        0.0,
        0.0,
        0.0,
        0.0,
        1.0
      ],
      "name": "Sketchfab_model"
    },
    {
      "children": [
        2,
        4,
        6,
        8
      ],
      "matrix": [
        1.0,
        0.0,
        0.0,
        0.0,
        0.0,
        -4.371139006309477e-08,
        0.999999999999999,
        0.0,
        0.0,
        -0.999999999999999,
        -4.371139006309477e-08,
        0.0,
        0.0,
        0.0,
        0.0,
        1.0
      ],
      "name": "Collada visual scene group"
    },
    {
      "children": [
        3
      ],
      "matrix": [
        0.984808087,
        7.4505806e-09,
        -0.173648283,
        0.0,
        -0.0364207998,
        0.977757812,
        -0.206552461,
        0.0,
        0.169785902,
        0.209738865,
        0.962903082,
        0.0,
        181.120972,
        223.608322,
        1026.55798,
        1.0
      ],
      "name": "Light_Node_2"
    },
    {
      "name": "light_id_1"
    },
    {
      "children": [
        5
      ],
      "matrix": [
        0.984808087,
        7.4505806e-09,
        -0.173648283,
        0.0,
        -0.0364207998,
        0.977757812,
        -0.206552461,
        0.0,
        0.169785902,
        0.209738865,
        0.962903082,
        0.0,
        181.120972,
        223.608322,
        1026.55798,
        1.0
      ],
      "name": "Light_Node_1"
    },
    {
      "name": "light_id_0"
    },
    {
      "children": [
        7
      ],
      "matrix": [
        0.984808087,
        7.4505806e-09,
        -0.173648283,
        0.0,
        -0.0364207998,
        0.977757812,
        -0.206552461,
        0.0,
        0.169785902,
        0.209738865,
        0.962903082,
        0.0,
        181.120972,
        223.608322,
        1026.55798,
        1.0
      ],
      "name": "Camera_Node"
    },
    {
      "name": "camera_id_main"
    },
    {
      "children": [
        9
      ],
      "matrix": [
        1.0,
        0.0,
        0.0,
        0.0,
        0.0,
        -1.0,
        0.0,
        0.0,
        0.0,
        0.0,
        1.0,
        0.0,
        0.0,
        0.0,
        0.0,
        1.0
      ],
      "name": "Model"
    },
    {
      "children": [
        10,
        19
      ],
      "name": "UntitledModel_dot_io"
    },
    {
      "children": [
        11
      ],
      "name": "bb1142c01_dot_dat"
    },
    {
      "children": [
        12,
        13,
        14,
        15,
        16,
        17,
        18
      ],
      "matrix": [
        0.998214006,
        0.0,
        0.0,
        0.0,
        0.0,
        0.996874988,
        0.0,
        0.0,
        0.0,
        0.0,
        0.998863995,
        0.0,
        -29.9999886,
        -0.124990001,
        130.0,
        1.0
      ],
      "name": "Object_11"
    },
    {
      "mesh": 0,
      "name": "Base"
    },
    {
      "mesh": 1,
      "name": "sym_1"
    },
    {
      "mesh": 2,
      "name": "sym_-11"
    },
    {
      "mesh": 3,
      "name": "sym_12"
    },
    {
      "mesh": 4,
      "name": "sym_11"
    },
    {
      "mesh": 5,
      "name": "sym_21"
    },
    {
      "mesh": 6,
      "name": "sym_86"
    },
    {
      "children": [
        20
      ],
      "name": "55422c01_dot_dat"
    },
    {
      "children": [
        21,
        22,
        23
      ],
      "matrix": [
        0.998188019,
        0.0,
        0.0,
        0.0,
        0.0,
        0.995455027,
        0.0,
        0.0,
        0.0,
        0.0,
        0.998656988,
        0.0,
        -30.0,
        -0.124981001,
        129.99585,
        1.0
      ],
      "name": "Object_20"
    },
    {
      "mesh": 7,
      "name": "Base"
    },
    {
      "mesh": 8,
      "name": "sym_-11"
    },
    {
      "mesh": 9,
      "name": "sym_11"
    }
  ],
  "scene": 0,
  "scenes": [
    {
      "name": "Sketchfab_Scene",
      "nodes": [
        0
      ]
    }
  ]
}
